<?xml version="1.0" standalone="no"?>
<!DOCTYPE svg PUBLIC "-//W3C//DTD SVG 20010904//EN"
 "http://www.w3.org/TR/2001/REC-SVG-20010904/DTD/svg10.dtd">
<svg version="1.0" xmlns="http://www.w3.org/2000/svg"
 width="752.000000pt" height="752.000000pt" viewBox="0 0 752.000000 752.000000"
 preserveAspectRatio="xMidYMid meet">
<metadata>
Created by potrace 1.16, written by Peter Selinger 2001-2019
</metadata>
<g transform="translate(0.000000,752.000000) scale(0.100000,-0.100000)"
fill="#000000" stroke="none">
<path d="M2964 5215 c-74 -51 -100 -229 -144 -975 -33 -564 -66 -919 -89 -984
-9 -24 -31 77 -66 299 -29 193 -48 266 -81 322 -30 52 -68 73 -129 73 -107 0
-169 -75 -225 -274 -28 -102 -50 -146 -70 -146 -9 0 -36 21 -60 46 -81 82
-100 88 -298 92 -169 4 -175 3 -198 -19 -27 -26 -32 -74 -10 -105 13 -17 31
-19 180 -24 l165 -5 53 -51 c69 -67 104 -84 175 -84 110 0 145 43 212 255 23
72 48 139 56 149 14 18 15 18 30 -18 9 -20 24 -92 35 -159 11 -67 29 -175 40
-239 39 -231 94 -318 199 -320 53 -1 77 16 105 70 55 110 76 282 121 997 32
512 45 674 55 705 8 25 8 25 9 -5 1 -16 6 -73 11 -125 13 -132 36 -539 60
-1030 50 -1030 76 -1274 147 -1352 18 -20 82 -24 114 -8 65 35 99 228 134 770
53 804 89 1267 100 1279 3 2 5 -4 5 -15 0 -10 5 -57 10 -104 5 -47 21 -227 35
-400 53 -663 81 -824 156 -896 25 -24 38 -29 78 -28 125 2 162 96 212 538 30
266 50 392 68 425 8 14 11 12 20 -12 10 -26 16 -60 57 -317 20 -131 47 -203
93 -252 43 -47 94 -61 162 -47 94 20 145 102 179 289 51 275 72 285 141 66 48
-155 95 -207 190 -214 104 -8 155 26 241 158 51 78 70 84 136 41 87 -56 116
-61 328 -61 181 0 195 1 214 20 28 28 26 81 -2 108 -21 19 -36 21 -213 24
l-190 3 -69 43 c-62 38 -76 42 -132 42 -35 0 -74 -4 -87 -9 -36 -14 -78 -61
-122 -136 -44 -74 -76 -98 -101 -74 -8 8 -33 69 -55 135 -22 65 -52 134 -66
152 -55 72 -140 98 -215 64 -77 -34 -105 -93 -142 -296 -27 -147 -48 -206 -76
-206 -31 0 -49 67 -80 285 -25 185 -51 274 -91 320 -36 40 -92 60 -142 51
-109 -20 -147 -124 -193 -531 -13 -121 -31 -259 -39 -308 -8 -48 -15 -90 -15
-95 0 -4 -5 0 -10 8 -21 37 -48 275 -85 765 -37 484 -55 613 -97 702 -26 56
-52 73 -110 73 -41 0 -50 -4 -72 -33 -67 -87 -102 -377 -156 -1287 -11 -190
-25 -394 -30 -455 -6 -60 -10 -123 -10 -140 -1 -22 -3 -26 -9 -15 -10 17 -40
476 -76 1180 -51 981 -78 1224 -146 1296 -26 28 -92 33 -125 9z"/>
</g>
</svg>
